# xmcd
#
# Track frame offsets:
#	182
#	15100
#	33297
#	49657
#	63042
#	75650
#	88432
#	108860
#	118245
#	132415
#	142897
#	155345
#	168125
#	176202
#	188817
#	202997
#	216240
#	228457
#	238130
#	248842
#	272090
#	284542
#
# Disc length: 3900 seconds
#
# Revision: 0
# Processed by: cddbd v1.5.1PL2 Copyright (c) Steve Scherf et al.
# Submitted via: audiograbber 1.83.01
#
DISCID=310f3a16
DTITLE=Alan Price Set - Alan Price Set
DYEAR=1900
DGENRE=
TTITLE0=I Put A Spell On You
TTITLE1=Never Be Sick On Sunday
TTITLE2=Iechyd-Da
TTITLE3=Any Day Now
TTITLE4=Hi-Lili-Hi-Lo
TTITLE5=Take Me Home
TTITLE6=Barefootin'
TTITLE7=Critics Choice
TTITLE8=Have Mercy
TTITLE9=It's Getting Mighty Crowded
TTITLE10=Willow Weep For Me
TTITLE11=Yours Until Tomorrow
TTITLE12=Simon Smith And The Amazing Dancing Bear
TTITLE13=Tickley Me
TTITLE14=The House That Jack Built
TTITLE15=Who Cares
TTITLE16=Shame
TTITLE17=Don't Do That Again
TTITLE18=Don't Stop The Carnival
TTITLE19=The Time Has Come
TTITLE20=Love Story
TTITLE21=My Old Kentucky Home
EXTD=
EXTT0=
EXTT1=
EXTT2=
EXTT3=
EXTT4=
EXTT5=
EXTT6=
EXTT7=
EXTT8=
EXTT9=
EXTT10=
EXTT11=
EXTT12=
EXTT13=
EXTT14=
EXTT15=
EXTT16=
EXTT17=
EXTT18=
EXTT19=
EXTT20=
EXTT21=
PLAYORDER=
